# xmcd
#
# Track frame offsets:
#	150
#	19818
#	38126
#	59629
#	72933
#	90195
#	102841
#	122088
#	136089
#	151203
#	167989
#	183192
#	199727
#	215633
#	234068
#	253453
#	268510
#	285797
#	303621
#	320718
#	334438
#
# Disc length: 4713 seconds
#
# Revision: 0
# Processed by: cddbd v1.5.2PL0 Copyright (c) Steve Scherf et al.
# Submitted via: EasyCDDAExtractor 2010.4.0.0
#
DISCID=2f126715
DTITLE=Various Artist - Country Hits, Vol. 29
DYEAR=2010
DGENRE=Country
TTITLE0=Kenny Rogers - Coward of the county
TTITLE1=Hal Ketchum - Some Place Far Away
TTITLE2=Hank Williams Jr. - Why Can't We All Just Get a Long Neck
TTITLE3=Keith Whitley - Just How Bad Do You Wanna Feel Good
TTITLE4=Brad Paisley - Flowers
TTITLE5=Clint Black - Killin' Time
TTITLE6=Hal Ketchum - Momma Knows The  Highway
TTITLE7=Hoyt Axton - Poncho and Lefty
TTITLE8=James Hand - Midnight Run
TTITLE9=Laura Cantrell - Broken Again
TTITLE10=Brad Paisley - Sleepin On The Foldout
TTITLE11=Kenny Rogers - Evening Star
TTITLE12=Keith Whitley - 'til A Tear Becomes A Rose
TTITLE13=Laura Cantrell - When The Roses Bloom Again
TTITLE14=Little Texas - Peaceful Easy Feeling
TTITLE15=Hoyt Axton - I Don't Know Why I Love You
TTITLE16=Hal Ketchum - Richest Man In Texas
TTITLE17=Clint Black - Half Way Up
TTITLE18=Laura Cantrell - The Way It Is
TTITLE19=Leona Williams - Okie From Muskogee
TTITLE20=Brad Paisley - Easy Money
EXTD=
EXTT0=
EXTT1=
EXTT2=
EXTT3=
EXTT4=
EXTT5=
EXTT6=
EXTT7=
EXTT8=
EXTT9=
EXTT10=
EXTT11=
EXTT12=
EXTT13=
EXTT14=
EXTT15=
EXTT16=
EXTT17=
EXTT18=
EXTT19=
EXTT20=
PLAYORDER=
